<svg viewBox="0 0 100 100" fill="none" xmlns="http://www.w3.org/2000/svg">
  <!-- 1. Blueprint Grid Lines (Gold #B89E68) -->
  <g stroke="#B89E68" stroke-width="0.5" opacity="0.7">
    <!-- Central Cross -->
    <line x1="50" y1="15" x2="50" y2="85" />
    <line x1="15" y1="50" x2="85" y2="50" />
    <!-- Inner Box -->
    <rect x="28" y="28" width="44" height="44" fill="none" />
    <!-- Tech Dots -->
    <circle cx="28" cy="28" r="1" fill="#B89E68" stroke="none" />
    <circle cx="72" cy="28" r="1" fill="#B89E68" stroke="none" />
    <circle cx="28" cy="72" r="1" fill="#B89E68" stroke="none" />
    <circle cx="72" cy="72" r="1" fill="#B89E68" stroke="none" />
  </g>

  <!-- 2. Circles -->
  <!-- Outer Thick Ring (Dark for visibility on light tabs) -->
  <circle cx="50" cy="50" r="44" stroke="#1C1C1C" stroke-width="3" />
  <!-- Inner Thin Gold Ring -->
  <circle cx="50" cy="50" r="40" stroke="#B89E68" stroke-width="0.8" />

  <!-- 3. The Column (Dark Body) -->
  <g fill="#1C1C1C">
    <!-- Base -->
    <rect x="36" y="78" width="28" height="4" />
    <rect x="39" y="75" width="22" height="3" />
    
    <!-- Shaft -->
    <rect x="41" y="38" width="18" height="37" />
    
    <!-- Capital (Ionic Style) -->
    <!-- Abacus -->
    <rect x="36" y="30" width="28" height="3" />
    <!-- Volutes Body -->
    <path d="M36 33 C33 33 33 38 36 38 H64 C67 38 67 33 64 33 H36 Z" />
  </g>

  <!-- 4. Details (Gold) -->
  <!-- Fluting on Shaft -->
  <g fill="#B89E68" opacity="0.6">
    <rect x="44" y="38" width="1" height="37" />
    <rect x="49.5" y="38" width="1" height="37" />
    <rect x="55" y="38" width="1" height="37" />
  </g>
  
  <!-- Volute Spirals -->
  <circle cx="39" cy="35.5" r="1.5" stroke="#B89E68" stroke-width="0.8" fill="#1C1C1C" />
  <circle cx="61" cy="35.5" r="1.5" stroke="#B89E68" stroke-width="0.8" fill="#1C1C1C" />
</svg>