<svg viewBox="0 0 100 100" fill="none" xmlns="http://www.w3.org/2000/svg">
  <g stroke="#B89E68" stroke-width="0.5" opacity="0.7">
    <line x1="50" y1="15" x2="50" y2="85" />
    <line x1="15" y1="50" x2="85" y2="50" />
    <rect x="28" y="28" width="44" height="44" fill="none" />
    <circle cx="28" cy="28" r="1" fill="#B89E68" stroke="none" />
    <circle cx="72" cy="28" r="1" fill="#B89E68" stroke="none" />
    <circle cx="28" cy="72" r="1" fill="#B89E68" stroke="none" />
    <circle cx="72" cy="72" r="1" fill="#B89E68" stroke="none" />
  </g>
  <circle cx="50" cy="50" r="44" stroke="white" stroke-width="3" />
  <circle cx="50" cy="50" r="40" stroke="#B89E68" stroke-width="0.8" />
  <g fill="white">
    <rect x="36" y="78" width="28" height="4" />
    <rect x="39" y="75" width="22" height="3" />
    <rect x="41" y="38" width="18" height="37" />
    <rect x="36" y="30" width="28" height="3" />
    <path d="M36 33 C33 33 33 38 36 38 H64 C67 38 67 33 64 33 H36 Z" />
  </g>
  <g fill="#B89E68" opacity="0.6">
    <rect x="44" y="38" width="1" height="37" />
    <rect x="49.5" y="38" width="1" height="37" />
    <rect x="55" y="38" width="1" height="37" />
  </g>
  <circle cx="39" cy="35.5" r="1.5" stroke="#B89E68" stroke-width="0.8" fill="white" />
  <circle cx="61" cy="35.5" r="1.5" stroke="#B89E68" stroke-width="0.8" fill="white" />
</svg>