<?xml version="1.0" encoding="UTF-8" standalone="no"?>
<!DOCTYPE svg PUBLIC "-//W3C//DTD SVG 1.1//EN" "http://www.w3.org/Graphics/SVG/1.1/DTD/svg11.dtd">
<svg width="100%" height="100%" viewBox="0 0 1024 1024" version="1.1" xmlns="http://www.w3.org/2000/svg" xmlns:xlink="http://www.w3.org/1999/xlink" xml:space="preserve" xmlns:serif="http://www.serif.com/" style="fill-rule:evenodd;clip-rule:evenodd;stroke-linejoin:round;stroke-miterlimit:2;">
    <g>
        <path d="M485.25,946.95C453.6,945 423.75,940.2 395.5,932.45C383.95,929.3 360.75,921.6 350.5,917.55C314,903.05 278.3,883.2 249.25,861.3C226.15,843.9 206.6,826.35 186.35,804.75C135.95,751.05 99.45,684.3 81.6,613.25C72.4,576.7 68.5,544.15 68.5,503C68.5,470.9 70.35,449.3 75.55,421.5C82.55,383.75 96.15,343.15 113.15,309.25C130.7,274.15 148.3,247.65 174.3,216.95C198.25,188.7 228.5,161.85 261.15,139.8C306.7,109.05 357.05,87.4 411.05,75.3C464.5,63.35 523.35,61.25 579,69.3C624.5,75.85 666.35,88.55 709,108.75C720.05,114 722,115 736,122.8C787.4,151.45 834.6,193.15 871.3,242.25C902.1,283.45 925.95,332.1 940.2,382.75C951.7,423.65 956.5,459.3 956.5,503.75C956.5,536.95 953.75,564.35 947.45,595C929.35,682.5 885.55,761.05 819.85,823.95C788.8,853.65 755.25,877.75 716.5,898.15C692.75,910.6 661.9,922.95 635.45,930.5C607.3,938.5 584.4,942.85 554.75,945.7C537.35,947.4 502.55,948 485.25,946.95ZM540.5,929.75C552.65,928.9 562.5,927.9 572.75,926.45C580.6,925.3 597.1,922.3 600.5,921.35L602.75,920.7L603,699.75L603.25,478.75L604.4,475.55C606.65,469.35 609.9,465.5 615.45,462.55C620.7,459.8 622.9,459.5 639.45,459.5L654.5,459.5L654.5,682C654.5,804.4 654.6,904.5 654.75,904.5C655.2,904.5 671.05,898.2 676.5,895.85C692.05,889.15 710.8,879.75 724.75,871.65L730.75,868.15L731.25,531.75L737.9,531.6L744.5,531.45L744.5,642L763,642L763.1,586.9L763.25,531.75L799.25,531.6L835.25,531.5L835.35,520.75L835.5,510L794.85,510L754.25,510.05L753,512.1C750.2,516.65 745.5,518.7 738.1,518.4C732.25,518.2 729.55,517.05 726.25,513.4C723.4,510.2 722.5,507.45 722.5,501.8C722.5,498.1 722.75,496.8 723.7,494.75C725.15,491.65 727.35,489.35 730.7,487.6C733.05,486.35 733.7,486.25 739,486.25C744.45,486.25 744.9,486.35 747.45,487.75C750.3,489.35 752.95,492.05 754.25,494.8L755.05,496.5L795.15,496.4L835.25,496.25L835.25,410.8C835.25,327.65 835.2,325.35 834.3,324.8C830.85,322.8 828.5,320.35 827,317.3C825.45,314.15 825.4,313.9 825.6,308.9C825.75,304.95 826.05,303.3 826.85,301.75C828.35,298.95 831.25,296.2 834.3,294.75C836.55,293.7 837.65,293.5 841.75,293.5C846.15,293.5 846.9,293.65 849.8,295.05C855.85,297.9 858.8,303.3 858.4,310.7C858.05,316.9 855.7,321.25 851.15,324.05L849.5,325.1L849.5,496.5L893.9,496.4L938.25,496.25L938.4,494C938.65,491 937.65,473.05 936.75,464.25C934.6,443.45 931.25,424.1 926.5,405C918.8,374.2 907.35,342.7 894.45,316.9C878.55,285.05 859.9,256.95 837.3,230.5C828.95,220.75 807.5,199 798.25,190.95C773.15,169 750.15,152.7 722.75,137.35C673.65,109.95 613,91.05 556,85.5C545.3,84.45 531.1,83.5 525.65,83.5L520,83.5L520,167.5L599.65,167.45L679.25,167.45L680.8,165.1C681.95,163.3 683.1,162.35 685.7,161C688.85,159.4 689.4,159.25 693.7,159.3C697.3,159.3 698.7,159.55 700.5,160.4C703.9,162.05 706.1,164.1 707.5,166.8C708.6,168.95 708.75,169.9 708.75,174.75C708.75,179.45 708.6,180.55 707.65,182.25C706.35,184.65 703.4,187.55 701,188.8C698.45,190.1 690.9,190.4 687.6,189.3C684.6,188.3 681.3,185.55 679.95,182.95L679,181L520,181L520,225L505.5,225L505.5,181L338,181L337.5,182.2C336.8,184.05 334.1,186.9 331.55,188.4C329.4,189.65 328.85,189.75 323.5,189.75C318.15,189.75 317.6,189.65 315.4,188.4C310.15,185.3 307.7,180.35 308.1,173.6C308.5,167.15 311.1,163 316.3,160.5C318.35,159.55 319.55,159.35 323.5,159.3C327.7,159.3 328.55,159.45 331,160.7C334.3,162.35 335.25,163.15 336.8,165.65L338,167.5L421.65,167.4L505.25,167.25L505.4,156.9L505.5,146.5L286.85,146.5L282.55,149.05C269.05,157.15 249.4,171.6 233.75,184.95C220.25,196.5 202.8,213.35 192.4,225C143.55,279.7 108.8,350 94,424C91.4,436.95 90.05,445.85 88.25,462.1C87.5,468.5 86.5,484.95 86.5,490.4L86.5,496.5L131.1,496.4L175.75,496.25L175.9,410.7L176,325.1L173.55,323.55C168.75,320.45 166.5,316 166.5,309.5C166.5,302.35 169.4,297.35 175.25,294.5C177.4,293.45 178.45,293.3 182.75,293.3C187.15,293.3 188.05,293.45 190.3,294.6C193.95,296.5 195.6,298.05 197.25,301.1C198.5,303.35 198.75,304.45 198.9,308.25C199,310.75 198.85,313.7 198.55,314.85C197.7,317.9 195.05,321.55 192.4,323.25L190.05,324.75L190.25,496.25L223.5,496.4C241.8,496.5 259.95,496.4 263.9,496.25L271,495.9L271.8,494.25C273,491.7 275.9,489 278.95,487.55C282.7,485.85 290,485.7 293.55,487.35C296.85,488.8 299.55,491.5 301.25,494.8C302.55,497.35 302.7,498.15 302.7,502.45C302.7,506.4 302.5,507.7 301.55,509.9C300.1,513.15 296.4,516.6 293.15,517.7C290.05,518.75 282.95,518.75 279.85,517.7C277.35,516.85 273.15,513.45 272.05,511.3L271.35,510L190,510L190,531.5L262,531.5L262,642L280.5,642L280.5,531.45L287.25,531.6L294.05,531.75L294,699.85L294,867.9L295.35,868.9C298.4,871 314.35,879.7 325.25,885.15C341.75,893.4 369.05,905.1 369.9,904.3C370.1,904.1 370.3,804 370.35,681.85L370.5,459.75L384.35,459.6C393.2,459.5 399.35,459.65 401.25,460C408.15,461.3 415.1,466.15 418.1,471.8C421.25,477.65 421,459.25 421,696.55C421,815.5 421.15,914.55 421.3,916.55L421.65,920.3L426.95,921.45C429.85,922.1 432.75,922.7 433.35,922.85L434.5,923.1L434.6,698.95C434.75,518.75 434.9,474.4 435.4,472.9C436.45,469.9 440,465 442.45,463.2C445.6,460.9 449.4,459.55 453.75,459.15C463.4,458.35 471.85,462.95 475.7,471L477.25,474.25L477.75,929.25L481.5,929.65C495.2,931 520.7,931.05 540.5,929.75ZM280.5,757.5L280.5,655.5L262,655.5L262,846.9L270.9,853.15C275.75,856.6 279.9,859.45 280.15,859.45C280.35,859.5 280.5,813.6 280.5,757.5ZM749.4,856.2C751.8,854.65 755.85,851.8 758.4,849.95L763,846.5L762.9,751.15L762.75,655.75L753.65,655.6L744.5,655.5L744.5,757.25C744.5,813.2 744.65,859 744.8,859C744.95,859 747.05,857.75 749.4,856.2ZM247.75,656.15C247.6,655.65 241.3,655.5 218.75,655.5L190,655.5L190,699L191.95,699.95C193,700.5 194.9,702.1 196.2,703.55C199.3,706.95 200.2,710.15 199.9,716.05C199.6,721.2 198.4,723.65 194.75,726.9C191.6,729.65 188.85,730.5 183.05,730.5C178.8,730.5 177.9,730.35 175.25,729.1C171.75,727.45 169.35,724.9 167.7,721.15C166,717.35 166,710.85 167.7,707.2C169.2,704 171.65,701.2 174.1,699.95L176,699L176,677.45C176,660.75 175.85,655.9 175.4,655.75C175.05,655.6 161.3,655.55 144.9,655.6L115,655.75L117.95,663C121.55,671.85 128.7,687.55 132.15,694C144.35,717.05 152.05,729.6 165.4,748.5C186.05,777.65 212.6,806.3 241.5,830.65L247.75,835.9L247.9,746.35C247.95,697.05 247.9,656.45 247.75,656.15ZM785.75,828.55C811.25,807.3 835.8,780.9 856.75,752.25C861.65,745.5 873.7,727.5 878,720.5C888.55,703.25 901.6,676.95 908.95,658.15L910,655.5L849.5,655.5L849.5,698.5L851.4,699.7C853.75,701.15 856.15,703.85 857.6,706.65C858.55,708.45 858.75,709.55 858.75,714C858.75,719.95 858.05,721.85 854.45,725.75C851.4,729.1 848.3,730.2 842.25,730.25C837.9,730.25 836.9,730.1 834.45,728.9C831,727.3 828.1,724.5 826.45,721.2C825.4,719.1 825.25,718.05 825.3,713.75C825.3,710.3 825.55,708.2 826.1,707C827.55,703.9 830,700.95 832.5,699.4C834.9,697.9 834.95,697.85 835.25,694.8C835.4,693.15 835.5,683.65 835.4,673.75L835.25,655.75L806.15,655.6L777,655.5L777,835.6L779.15,833.95C780.3,833.05 783.3,830.6 785.75,828.55ZM175.9,593.65L176,545.5L132.25,545.5C105.35,545.5 88.5,545.7 88.5,545.95C88.5,547.25 90.7,563.7 91.8,570.5C94.95,590.35 102.2,619.6 108.1,636.5C108.9,638.85 109.65,641.05 109.8,641.4C109.95,641.9 116.8,642 142.85,641.9L175.75,641.75L175.9,593.65ZM248,642L248,545.5L190,545.5L190,642L248,642ZM835.45,642L835.25,545.5L777,545.5L777,642L835.45,642ZM916.05,638.75C926.9,604.6 931.1,585.7 936.25,547.65L936.55,545.5L849.5,545.5L849.5,642L882.3,641.9L915.1,641.75L916.05,638.75ZM176,531.5L176,510L86.35,510L86.65,518.9C86.85,523.75 87.15,528.6 87.3,529.65L87.65,531.5L176,531.5ZM937.7,528.4C937.85,526.65 938.15,521.8 938.35,517.65L938.65,510L849.5,510L849.5,531.5L937.35,531.5L937.7,528.4ZM505.5,133.5L505.5,83.5L500.9,83.5C484.8,83.5 453.7,86.75 433,90.5C393.9,97.65 353.15,111.3 318.25,128.9L309.25,133.45L407.4,133.45L505.5,133.5Z" style="fill:white;fill-rule:nonzero;"/>
        <path d="M365.6,444.95C363.25,443.4 362.5,441.65 362.5,437.4C362.5,433.2 363.45,431.1 366.1,429.5C367.75,428.5 368.95,428.5 512.75,428.5C649.8,428.5 657.85,428.55 659.5,429.4C662.35,430.8 663.5,433.05 663.5,437.2C663.5,441.3 662.5,443.4 659.9,445C658.25,446 657.05,446 512.75,446L367.25,446L365.6,444.95Z" style="fill:white;fill-rule:nonzero;"/>
        <path d="M290.8,438.25C277.4,436.05 266.05,430.4 256.3,421C245.6,410.7 238.7,397.95 236.2,383.85C235.3,378.5 235.25,364.55 236.2,359.25C239.3,341.7 248.6,326.25 262.15,316.05C273.65,307.45 286.1,302.55 300.1,301C303.4,300.65 371.25,300.5 512.6,300.5C735.7,300.5 724.4,300.4 735.3,303C752.45,307.05 768.55,318.5 778.25,333.5C786.2,345.75 789.5,358.95 788.85,375.75C788.15,393.65 781.95,408.1 769.75,420.25C756.45,433.55 740.6,439.55 720.25,438.85C709,438.5 701.55,436.75 692.95,432.45C670.6,421.3 658.2,397.1 662.2,372.45C665.5,352 679.5,338.4 700.5,335.25C716.8,332.75 732.1,337.2 741.25,347.1C751.6,358.25 752.1,378.15 742.3,390.1C738.1,395.25 730.8,399.45 724.1,400.55C719.2,401.35 708.25,401.1 703.25,400.05C697.75,398.9 697,399.25 698.75,401.95C702.55,407.65 711.95,411.5 722,411.5C733.55,411.5 743.4,407.15 751.85,398.35C759.85,390.05 764.5,379.05 764.5,368.6C764.5,360.25 758.9,346.05 752.8,338.95C746.9,332.05 734.3,325.4 722.5,323C705.7,319.55 689.35,322.7 674.65,332.3C669.25,335.75 661.15,343.8 657.55,349.15C654.1,354.3 650.45,361.85 649,366.9L647.8,371L512.35,370.9L376.85,370.75L376.2,368.1C375.15,364.15 372.2,357.2 369.65,352.95C358.15,333.55 340.75,322.75 318.5,321.25C309.95,320.65 298.2,322.9 290.75,326.55C286.45,328.65 278.7,334.15 274.85,337.9C269.55,343.05 264.45,350.8 262.6,356.55C259.55,365.85 260.35,374.3 265.3,385.7C273.4,404.2 293.55,414.9 311.95,410.5C317.8,409.1 322.2,406.8 325.75,403.35C328.45,400.75 328.65,400.4 327.85,399.9C327.2,399.55 325.7,399.65 322.6,400.3C315.9,401.7 303.55,401.55 298.25,400.05C287.55,397.05 280.5,390.1 277.2,379.25C276.5,376.95 276.25,374.65 276.3,369.5C276.3,361.95 276.7,360.05 279.5,354.25C283.95,345 292.9,338.45 305.3,335.4C311,334.05 324.2,333.95 329.65,335.25C343.4,338.5 352.9,345.85 358.8,357.75C362.2,364.65 363.1,368.75 363.4,378.5C363.65,387.7 363.15,391.8 360.95,398.55C354.65,418.2 338.8,432.5 318,437.3C311.2,438.9 297.65,439.35 290.8,438.25Z" style="fill:white;fill-rule:nonzero;"/>
    </g>
    <g>
        <path d="M491.5,961.45C432.95,958.25 378.6,945.2 325.75,921.75C298,909.45 266.5,891.05 242,872.85C213.1,851.4 181.8,821.6 158.3,793.25C120.1,747.15 89.15,689.35 73.25,634.5C63.3,600.05 58.55,572.95 55.4,532.75C54.5,520.75 54.65,482.85 55.7,469.75C58.95,428.8 65.35,396.95 78,359C96.1,304.45 125.85,252.4 164.25,208C184.9,184.1 211.45,159.4 236.75,140.5C289.8,100.9 353.85,72.2 418.75,59.05C427.25,57.35 441.9,54.8 447.8,54.05C450,53.75 453.55,53.3 455.75,53C473.05,50.75 492.35,49.85 517.1,50.15C538.85,50.4 543.55,50.65 561.5,52.5C631.4,59.65 702.35,84.25 761.5,121.9C790.2,140.15 814.6,159.9 840,185.45C901.15,247 942.15,323.25 960.7,410C965.2,431.1 967.7,449.95 969.55,477C970.25,487.75 970.25,522.1 969.55,532.85C963.9,615.25 938.95,689.4 894.4,756.2C857.9,810.85 805,861.45 748.75,895.5C690.3,930.85 625.95,952.4 557.5,959.5C536.7,961.65 509.45,962.45 491.5,961.45ZM539.25,945.25C585.1,942.15 622.3,934.4 663.75,919.25C678.55,913.85 701.7,903.65 715,896.65C768.3,868.6 813.5,832.25 852.05,786.5C909.55,718.2 943.65,637.4 953,547.25C955.05,527.4 955.6,496.85 954.25,475.3C950.7,418.7 936.05,363.1 911.3,312.25C884.65,257.6 849.45,212.2 802,171.45C778.35,151.1 753.7,134.5 721.5,117.15C710.7,111.3 686.35,100.45 671.4,94.8C600.45,68 519.65,59.55 443.5,71.05C378,80.95 316.95,104.65 262.65,141.3C230,163.35 199.75,190.2 175.8,218.45C149.8,249.15 132.2,275.65 114.65,310.75C92.1,355.75 76.95,408.15 72.05,458C69.25,486.55 69.2,517.2 72,547.75C77.9,612.9 100.85,680 136.7,737C157.75,770.4 183.45,801.05 215,830.3C243,856.25 277.5,880.3 311.75,897.75C333.15,908.65 351.65,916.4 373.75,923.75C411.5,936.35 445.9,942.95 486.75,945.45C498.2,946.15 527.45,946.05 539.25,945.25Z" style="fill:rgb(29,27,25);fill-rule:nonzero;"/>
        <rect x="287" y="236" width="449" height="53" style="fill:white;"/>
    </g>
    <g>
        <path d="M498.85,932.15L493,931.95L493.1,704.35L493.25,476.75L494.45,473.3C498.2,462.8 510.9,457.6 520.7,462.6C523.35,463.95 527.3,467.75 528.85,470.4C531.65,475.15 531.5,460.15 531.5,705.05L531.5,931.85L524.4,932.15C517.55,932.5 511.7,932.45 498.85,932.15Z" style="fill:rgb(216,156,57);fill-rule:nonzero;"/>
        <path d="M549,705.2C549,555.8 549.15,478.75 549.5,477C549.8,475.5 550.55,473.15 551.2,471.7C555.6,462.1 568,457.9 577.2,462.9C580.1,464.5 584.15,468.45 585.3,470.95C587.6,475.75 587.5,464.3 587.5,701.8L587.5,925.85L580.9,926.9C572,928.35 564.2,929.35 555.9,930.15L549,930.8L549,705.2Z" style="fill:rgb(216,156,57);fill-rule:nonzero;"/>
        <path d="M371.9,413.2C371.75,413.05 372.45,410.95 373.5,408.5C375.95,402.9 377.85,396.8 378.65,392L379.3,388.25L645.15,388.25L646,393.25C647.1,399.65 647.65,401.65 650.05,407.7C651.1,410.4 652,412.8 652,413.05C652,413.55 372.35,413.7 371.9,413.2Z" style="fill:rgb(216,156,57);fill-rule:nonzero;"/>
    </g>
</svg>
